<?xml version="1.0" encoding="UTF-8"?>
<!DOCTYPE svg PUBLIC "-//W3C//DTD SVG 1.1//EN" "http://www.w3.org/Graphics/SVG/1.1/DTD/svg11.dtd">
<svg version="1.2" width="42mm" height="42.1mm" viewBox="0 0 4200 4210" preserveAspectRatio="xMidYMid" fill-rule="evenodd" stroke-width="28.222" stroke-linejoin="round" xmlns="http://www.w3.org/2000/svg" xmlns:ooo="http://xml.openoffice.org/svg/export" xmlns:xlink="http://www.w3.org/1999/xlink" xmlns:presentation="http://sun.com/xmlns/staroffice/presentation" xmlns:smil="http://www.w3.org/2001/SMIL20/" xmlns:anim="urn:oasis:names:tc:opendocument:xmlns:animation:1.0" xmlns:svg="urn:oasis:names:tc:opendocument:xmlns:svg-compatible:1.0" xml:space="preserve">
 <defs class="ClipPathGroup">
  <clipPath id="presentation_clip_path" clipPathUnits="userSpaceOnUse">
   <rect x="0" y="0" width="4200" height="4210"/>
  </clipPath>
  <clipPath id="presentation_clip_path_shrink" clipPathUnits="userSpaceOnUse">
   <rect x="4" y="4" width="4192" height="4202"/>
  </clipPath>
 </defs>
 <defs class="TextShapeIndex">
  <g ooo:slide="id1" ooo:id-list="id3"/>
 </defs>
 <defs class="EmbeddedBulletChars">
  <g id="bullet-char-template-57356" transform="scale(0.00048828125,-0.00048828125)">
   <path d="M 580,1141 L 1163,571 580,0 -4,571 580,1141 Z"/>
  </g>
  <g id="bullet-char-template-57354" transform="scale(0.00048828125,-0.00048828125)">
   <path d="M 8,1128 L 1137,1128 1137,0 8,0 8,1128 Z"/>
  </g>
  <g id="bullet-char-template-10146" transform="scale(0.00048828125,-0.00048828125)">
   <path d="M 174,0 L 602,739 174,1481 1456,739 174,0 Z M 1358,739 L 309,1346 659,739 1358,739 Z"/>
  </g>
  <g id="bullet-char-template-10132" transform="scale(0.00048828125,-0.00048828125)">
   <path d="M 2015,739 L 1276,0 717,0 1260,543 174,543 174,936 1260,936 717,1481 1274,1481 2015,739 Z"/>
  </g>
  <g id="bullet-char-template-10007" transform="scale(0.00048828125,-0.00048828125)">
   <path d="M 0,-2 C -7,14 -16,27 -25,37 L 356,567 C 262,823 215,952 215,954 215,979 228,992 255,992 264,992 276,990 289,987 310,991 331,999 354,1012 L 381,999 492,748 772,1049 836,1024 860,1049 C 881,1039 901,1025 922,1006 886,937 835,863 770,784 769,783 710,716 594,584 L 774,223 C 774,196 753,168 711,139 L 727,119 C 717,90 699,76 672,76 641,76 570,178 457,381 L 164,-76 C 142,-110 111,-127 72,-127 30,-127 9,-110 8,-76 1,-67 -2,-52 -2,-32 -2,-23 -1,-13 0,-2 Z"/>
  </g>
  <g id="bullet-char-template-10004" transform="scale(0.00048828125,-0.00048828125)">
   <path d="M 285,-33 C 182,-33 111,30 74,156 52,228 41,333 41,471 41,549 55,616 82,672 116,743 169,778 240,778 293,778 328,747 346,684 L 369,508 C 377,444 397,411 428,410 L 1163,1116 C 1174,1127 1196,1133 1229,1133 1271,1133 1292,1118 1292,1087 L 1292,965 C 1292,929 1282,901 1262,881 L 442,47 C 390,-6 338,-33 285,-33 Z"/>
  </g>
  <g id="bullet-char-template-9679" transform="scale(0.00048828125,-0.00048828125)">
   <path d="M 813,0 C 632,0 489,54 383,161 276,268 223,411 223,592 223,773 276,916 383,1023 489,1130 632,1184 813,1184 992,1184 1136,1130 1245,1023 1353,916 1407,772 1407,592 1407,412 1353,268 1245,161 1136,54 992,0 813,0 Z"/>
  </g>
  <g id="bullet-char-template-8226" transform="scale(0.00048828125,-0.00048828125)">
   <path d="M 346,457 C 273,457 209,483 155,535 101,586 74,649 74,723 74,796 101,859 155,911 209,963 273,989 346,989 419,989 480,963 531,910 582,859 608,796 608,723 608,648 583,586 532,535 482,483 420,457 346,457 Z"/>
  </g>
  <g id="bullet-char-template-8211" transform="scale(0.00048828125,-0.00048828125)">
   <path d="M -4,459 L 1135,459 1135,606 -4,606 -4,459 Z"/>
  </g>
  <g id="bullet-char-template-61548" transform="scale(0.00048828125,-0.00048828125)">
   <path d="M 173,740 C 173,903 231,1043 346,1159 462,1274 601,1332 765,1332 928,1332 1067,1274 1183,1159 1299,1043 1357,903 1357,740 1357,577 1299,437 1183,322 1067,206 928,148 765,148 601,148 462,206 346,322 231,437 173,577 173,740 Z"/>
  </g>
 </defs>
 <g>
  <g id="id2" class="Master_Slide">
   <g id="bg-id2" class="Background"/>
   <g id="bo-id2" class="BackgroundObjects"/>
  </g>
 </g>
 <g class="SlideGroup">
  <g>
   <g id="container-id1">
    <g id="id1" class="Slide" clip-path="url(#presentation_clip_path)">
     <g class="Page">
      <g class="Graphic">
       <g id="id3">
        <rect class="BoundingBox" stroke="none" fill="none" x="539" y="539" width="3251" height="3002"/>
        <defs>
         <clipPath id="clip_path_1" clipPathUnits="userSpaceOnUse">
          <path d="M 540,540 L 3789,539 3788,3538 539,3539 540,540 Z"/>
         </clipPath>
        </defs>
        <g clip-path="url(#clip_path_1)">
         <path fill="rgb(60,60,58)" stroke="none" d="M 7256,1478 C 7111,1478 6965,1521 6965,1825 6965,1944 6984,2020 7021,2068 7063,2123 7134,2147 7240,2147 7304,2147 7412,2139 7475,2129 L 7486,2126 7486,2028 7272,2028 C 7148,2028 7103,1994 7103,1893 L 7103,1856 7438,1856 C 7489,1856 7523,1822 7523,1769 L 7523,1729 C 7526,1565 7436,1478 7256,1478 L 7256,1478 Z M 7391,1759 L 7103,1759 7103,1732 C 7103,1669 7124,1595 7230,1595 L 7280,1595 C 7372,1595 7391,1650 7391,1735 L 7391,1759 7391,1759 Z"/>
         <path fill="rgb(60,60,58)" stroke="none" d="M 6138,1478 L 6106,1478 C 5910,1479 5826,1584 5825,1822 5825,2018 5873,2150 6106,2150 L 6137,2150 C 6328,2150 6418,2044 6418,1814 6418,1579 6333,1478 6138,1478 L 6138,1478 Z M 6275,1867 C 6275,1986 6235,2036 6140,2036 L 6106,2036 C 5989,2036 5968,1984 5968,1838 L 5968,1793 C 5968,1637 6000,1595 6111,1595 L 6132,1595 C 6238,1595 6275,1624 6275,1793 L 6275,1867 6275,1867 Z"/>
         <path fill="rgb(60,60,58)" stroke="none" d="M 4876,1479 C 4731,1479 4585,1521 4585,1825 4585,1944 4604,2021 4641,2068 4683,2124 4754,2148 4860,2148 4924,2148 5032,2140 5096,2129 L 5106,2126 5106,2029 4892,2029 C 4768,2029 4723,1994 4723,1894 L 4723,1857 5059,1857 C 5109,1857 5143,1822 5143,1769 L 5143,1730 C 5146,1566 5056,1479 4876,1479 L 4876,1479 Z M 5011,1759 L 4723,1759 4723,1733 C 4723,1669 4744,1595 4850,1595 L 4900,1595 C 4993,1595 5011,1651 5011,1735 L 5011,1759 5011,1759 Z"/>
         <path fill="rgb(60,60,58)" stroke="none" d="M 4347,1283 L 4347,1495 4162,1495 4162,1495 C 4038,1497 3914,1529 3914,1825 3914,2127 4030,2148 4194,2148 4263,2148 4355,2145 4472,2129 L 4482,2129 4482,1283 4347,1283 4347,1283 Z M 4347,2031 L 4197,2031 C 4085,2031 4054,1994 4054,1857 L 4054,1783 C 4054,1659 4094,1614 4207,1614 L 4347,1614 4347,2031 4347,2031 Z"/>
         <path fill="rgb(60,60,58)" stroke="none" d="M 7904,1478 C 7835,1478 7753,1483 7692,1494 L 7682,1494 7682,1595 7915,1594 C 7999,1594 8031,1624 8031,1706 L 8031,1737 C 7959,1727 7891,1724 7830,1724 7724,1724 7584,1748 7584,1949 7584,2137 7698,2150 7848,2150 7917,2150 8049,2144 8147,2126 L 8158,2123 8158,1703 C 8160,1505 8039,1478 7904,1478 L 7904,1478 Z M 8028,2031 L 7819,2031 C 7753,2031 7727,2010 7727,1951 L 7727,1928 C 7727,1870 7758,1843 7827,1843 L 8031,1843 8031,2031 8028,2031 Z"/>
         <path fill="rgb(60,60,58)" stroke="none" d="M 5482,1970 L 5283,1494 5143,1494 5410,2137 5545,2137 5804,1494 5670,1494 5482,1970 Z"/>
         <path fill="rgb(60,60,58)" stroke="none" d="M 6693,1941 L 6693,1600 6889,1600 6889,1494 6740,1494 6693,1494 6693,1317 6693,1317 6693,1293 6566,1293 6566,1317 6566,1494 6463,1494 6463,1494 6463,1507 6463,1547 6463,1560 6463,1600 6558,1600 6558,1944 C 6558,2047 6582,2150 6754,2150 6804,2150 6857,2142 6912,2131 L 6923,2129 6923,2034 6788,2034 C 6714,2034 6693,2012 6693,1941 L 6693,1941 Z"/>
         <path fill="rgb(60,60,58)" stroke="none" d="M 8938,1478 C 8874,1478 8792,1489 8718,1504 8673,1481 8618,1478 8565,1478 8443,1478 8295,1505 8295,1505 L 8295,2136 8433,2136 8433,1597 8560,1597 C 8652,1597 8679,1626 8679,1729 L 8679,2134 8816,2134 8816,1695 C 8816,1655 8811,1626 8803,1600 L 8919,1600 C 9022,1600 9057,1631 9057,1732 L 9057,2134 9192,2134 9192,1700 C 9189,1478 9020,1478 8938,1478 L 8938,1478 Z"/>
         <path fill="rgb(248,72,94)" stroke="none" d="M 2121,887 C 1444,887 897,1434 896,2111 L 896,2111 896,2111 C 896,2788 1444,3335 2121,3335 L 2121,3335 C 2798,3335 3345,2788 3345,2111 3345,1434 2798,887 2121,887 L 2121,887 Z"/>
         <path fill="rgb(60,60,58)" stroke="none" d="M 4032,2864 C 3993,2841 3958,2809 3935,2769 3911,2730 3900,2685 3900,2634 3900,2584 3911,2539 3935,2499 3958,2460 3990,2428 4033,2404 4072,2380 4120,2370 4170,2370 4207,2370 4241,2375 4273,2388 4305,2402 4331,2417 4355,2441 L 4331,2465 C 4289,2423 4236,2404 4170,2404 4125,2404 4085,2415 4051,2433 4017,2452 3988,2481 3966,2515 3945,2550 3935,2589 3935,2632 3935,2674 3945,2714 3966,2748 3988,2782 4014,2811 4051,2830 4088,2851 4128,2859 4170,2859 4233,2859 4289,2838 4331,2796 L 4355,2819 C 4334,2843 4305,2862 4273,2875 4241,2888 4207,2893 4170,2893 4120,2899 4075,2886 4032,2864 L 4032,2864 Z"/>
         <path fill="rgb(60,60,58)" stroke="none" d="M 4538,2526 C 4564,2510 4593,2502 4630,2502 L 4630,2539 4622,2539 C 4580,2539 4546,2552 4522,2579 4498,2605 4485,2642 4485,2692 L 4485,2896 4448,2896 4448,2505 4485,2505 4485,2589 C 4493,2563 4511,2542 4538,2526 L 4538,2526 Z"/>
         <path fill="rgb(60,60,58)" stroke="none" d="M 5040,2708 L 4707,2708 C 4707,2737 4715,2766 4731,2790 4744,2814 4765,2833 4789,2846 4813,2859 4842,2864 4871,2864 4897,2864 4918,2859 4942,2851 4966,2843 4982,2827 4995,2811 L 5016,2835 C 5000,2856 4979,2872 4953,2883 4926,2893 4900,2899 4871,2899 4831,2899 4797,2891 4768,2872 4738,2856 4715,2833 4696,2803 4678,2774 4670,2740 4670,2700 4670,2663 4678,2629 4694,2600 4709,2571 4733,2547 4760,2528 4789,2513 4821,2502 4855,2502 4889,2502 4921,2510 4950,2526 4979,2542 5000,2565 5016,2594 5032,2624 5040,2658 5040,2695 L 5040,2708 5040,2708 Z M 4783,2555 C 4762,2568 4744,2584 4731,2605 4717,2626 4709,2653 4707,2679 L 5006,2679 C 5003,2650 4998,2626 4984,2605 4971,2584 4953,2565 4932,2555 4910,2544 4884,2536 4858,2536 4831,2536 4805,2542 4783,2555 L 4783,2555 Z"/>
         <path fill="rgb(60,60,58)" stroke="none" d="M 5373,2539 C 5400,2563 5413,2600 5413,2647 L 5413,2893 5376,2893 5376,2824 C 5363,2848 5344,2864 5320,2877 5296,2891 5267,2896 5236,2896 5193,2896 5159,2885 5132,2864 5109,2843 5095,2817 5095,2785 5095,2753 5106,2727 5130,2706 5154,2684 5191,2676 5241,2676 L 5373,2676 5373,2645 C 5373,2608 5363,2581 5344,2563 5326,2544 5296,2534 5257,2534 5230,2534 5207,2539 5183,2547 5159,2555 5140,2568 5122,2584 L 5103,2557 C 5122,2539 5146,2526 5172,2518 5199,2510 5228,2505 5257,2505 5310,2502 5347,2515 5373,2539 L 5373,2539 Z M 5323,2843 C 5347,2827 5363,2806 5373,2780 L 5373,2705 5241,2706 C 5204,2706 5175,2713 5159,2727 5143,2740 5133,2758 5133,2785 5132,2811 5143,2830 5162,2846 5180,2862 5207,2867 5241,2867 5273,2867 5302,2859 5323,2843 L 5323,2843 Z"/>
         <path fill="rgb(60,60,58)" stroke="none" d="M 5733,2869 C 5722,2877 5712,2885 5698,2891 5685,2896 5669,2898 5653,2898 5619,2898 5593,2888 5574,2869 5556,2851 5548,2824 5548,2793 L 5548,2539 5476,2539 5476,2507 5548,2507 5548,2420 5585,2420 5585,2504 5709,2504 5709,2536 5585,2536 5585,2787 C 5585,2814 5590,2832 5603,2846 5616,2859 5632,2864 5656,2864 5680,2864 5701,2856 5717,2843 L 5733,2869 5733,2869 Z"/>
         <path fill="rgb(60,60,58)" stroke="none" d="M 5807,2401 C 5802,2396 5799,2388 5799,2380 5799,2372 5802,2364 5807,2359 5812,2354 5820,2351 5828,2351 5836,2351 5844,2354 5849,2359 5854,2364 5857,2372 5857,2380 5857,2388 5854,2396 5849,2401 5844,2407 5836,2409 5828,2409 5820,2409 5812,2409 5807,2401 L 5807,2401 Z M 5809,2504 L 5847,2504 5846,2893 5809,2893 5809,2504 5809,2504 Z"/>
         <path fill="rgb(60,60,58)" stroke="none" d="M 6291,2504 L 6116,2893 6079,2893 5905,2504 5944,2504 6100,2851 6256,2504 6291,2504 6291,2504 Z"/>
         <path fill="rgb(60,60,58)" stroke="none" d="M 6674,2708 L 6341,2708 C 6341,2737 6349,2766 6365,2790 6378,2814 6399,2832 6423,2845 6447,2859 6476,2864 6505,2864 6531,2864 6552,2859 6576,2851 6600,2843 6616,2827 6629,2811 L 6650,2835 C 6634,2856 6613,2872 6587,2882 6560,2893 6534,2898 6505,2898 6465,2898 6431,2890 6402,2872 6373,2856 6349,2832 6330,2803 6312,2774 6304,2740 6304,2700 6304,2663 6312,2629 6328,2600 6344,2570 6367,2547 6394,2528 6423,2512 6455,2502 6489,2502 6523,2502 6555,2510 6584,2525 6613,2541 6634,2565 6650,2594 6666,2623 6674,2658 6674,2695 L 6674,2708 6674,2708 Z M 6415,2555 C 6394,2568 6375,2584 6362,2605 6349,2626 6341,2652 6338,2679 L 6637,2679 C 6634,2650 6629,2626 6616,2605 6603,2584 6584,2565 6563,2555 6542,2544 6516,2536 6489,2536 6463,2536 6436,2541 6415,2555 L 6415,2555 Z"/>
         <path fill="rgb(60,60,58)" stroke="none" d="M 7039,2406 L 6851,2406 6851,2372 7264,2372 7264,2406 7076,2406 7076,2893 7039,2893 7039,2406 7039,2406 Z"/>
         <path fill="rgb(60,60,58)" stroke="none" d="M 7650,2708 L 7317,2708 C 7317,2737 7325,2766 7340,2790 7354,2814 7375,2832 7399,2845 7422,2858 7452,2864 7481,2864 7507,2864 7528,2858 7552,2851 7576,2843 7592,2827 7605,2811 L 7626,2835 C 7610,2856 7589,2872 7563,2882 7536,2893 7510,2898 7481,2898 7441,2898 7407,2890 7377,2872 7348,2856 7325,2832 7306,2803 7288,2774 7280,2740 7280,2700 7280,2663 7288,2628 7303,2599 7319,2570 7343,2546 7370,2528 7399,2512 7430,2502 7465,2502 7499,2502 7531,2509 7560,2525 7589,2541 7610,2565 7626,2594 7642,2623 7650,2657 7650,2695 L 7650,2708 7650,2708 Z M 7391,2554 C 7370,2568 7351,2584 7338,2605 7325,2626 7317,2652 7314,2679 L 7613,2679 C 7610,2650 7605,2626 7592,2605 7579,2583 7560,2565 7539,2554 7518,2544 7491,2536 7465,2536 7438,2536 7412,2541 7391,2554 L 7391,2554 Z"/>
         <path fill="rgb(60,60,58)" stroke="none" d="M 7793,2872 C 7764,2856 7740,2832 7724,2800 7708,2771 7697,2737 7697,2700 7697,2663 7705,2628 7724,2597 7740,2568 7764,2544 7793,2528 7822,2512 7856,2504 7893,2504 7925,2504 7954,2509 7978,2523 8004,2536 8025,2552 8041,2575 L 8015,2597 C 8002,2578 7983,2562 7962,2554 7941,2544 7920,2541 7893,2541 7864,2541 7835,2549 7811,2562 7787,2575 7769,2594 7756,2620 7742,2644 7735,2673 7734,2705 7734,2737 7742,2766 7756,2790 7769,2813 7787,2835 7811,2848 7835,2861 7861,2869 7893,2869 7917,2869 7941,2864 7962,2856 7983,2845 7999,2832 8015,2813 L 8041,2835 C 8025,2858 8004,2877 7978,2887 7951,2901 7925,2906 7893,2906 7856,2895 7822,2887 7793,2872 L 7793,2872 Z"/>
         <path fill="rgb(60,60,58)" stroke="none" d="M 8433,2544 C 8462,2573 8475,2612 8475,2665 L 8475,2893 8438,2893 8438,2668 C 8438,2623 8427,2591 8404,2567 8380,2544 8351,2533 8311,2533 8266,2533 8229,2546 8203,2573 8176,2599 8163,2636 8163,2684 L 8163,2890 8126,2890 8126,2340 8163,2340 8163,2586 C 8176,2560 8197,2538 8224,2523 8250,2507 8282,2501 8316,2501 8367,2501 8404,2517 8433,2544 L 8433,2544 Z"/>
         <path fill="rgb(255,255,255)" stroke="none" d="M 2938,2016 L 2467,2016 2467,2873 1912,2873 C 1610,2873 1338,2690 1338,2299 1338,2011 1489,1725 1912,1725 L 2042,1725 C 2042,1725 2092,1868 2113,2019 L 1920,2019 C 1748,2019 1647,2114 1647,2299 1647,2473 1740,2579 1920,2579 L 2168,2579 2169,1291 2470,1291 2470,1728 2938,1728 2938,2016 2938,2016 Z"/>
        </g>
       </g>
      </g>
     </g>
    </g>
   </g>
  </g>
 </g>
</svg>